<svg width="56" height="56" viewBox="0 0 56 56" fill="none" xmlns="http://www.w3.org/2000/svg">
<path fill-rule="evenodd" clip-rule="evenodd" d="M19 34.75C19 34.5511 19.079 34.3603 19.2197 34.2197C19.3603 34.079 19.5511 34 19.75 34H36.25C36.4489 34 36.6397 34.079 36.7803 34.2197C36.921 34.3603 37 34.5511 37 34.75C37 34.9489 36.921 35.1397 36.7803 35.2803C36.6397 35.421 36.4489 35.5 36.25 35.5H19.75C19.5511 35.5 19.3603 35.421 19.2197 35.2803C19.079 35.1397 19 34.9489 19 34.75ZM19 30.25C19 30.0511 19.079 29.8603 19.2197 29.7197C19.3603 29.579 19.5511 29.5 19.75 29.5H36.25C36.4489 29.5 36.6397 29.579 36.7803 29.7197C36.921 29.8603 37 30.0511 37 30.25C37 30.4489 36.921 30.6397 36.7803 30.7803C36.6397 30.921 36.4489 31 36.25 31H19.75C19.5511 31 19.3603 30.921 19.2197 30.7803C19.079 30.6397 19 30.4489 19 30.25ZM19 25.75C19 25.5511 19.079 25.3603 19.2197 25.2197C19.3603 25.079 19.5511 25 19.75 25H36.25C36.4489 25 36.6397 25.079 36.7803 25.2197C36.921 25.3603 37 25.5511 37 25.75C37 25.9489 36.921 26.1397 36.7803 26.2803C36.6397 26.421 36.4489 26.5 36.25 26.5H19.75C19.5511 26.5 19.3603 26.421 19.2197 26.2803C19.079 26.1397 19 25.9489 19 25.75ZM19 21.25C19 21.0511 19.079 20.8603 19.2197 20.7197C19.3603 20.579 19.5511 20.5 19.75 20.5H36.25C36.4489 20.5 36.6397 20.579 36.7803 20.7197C36.921 20.8603 37 21.0511 37 21.25C37 21.4489 36.921 21.6397 36.7803 21.7803C36.6397 21.921 36.4489 22 36.25 22H19.75C19.5511 22 19.3603 21.921 19.2197 21.7803C19.079 21.6397 19 21.4489 19 21.25Z" fill="black"/>
</svg>
